<mxfile host="Electron" modified="2023-06-22T18:50:48.816Z" agent="Mozilla/5.0 (X11; Linux x86_64) AppleWebKit/537.36 (KHTML, like Gecko) draw.io/21.5.0 Chrome/112.0.5615.204 Electron/24.5.1 Safari/537.36" etag="naS-Xr1McuMwaS5b_nAe" version="21.5.0" type="device" pages="2">
  <diagram name="Page-1" id="uFwYqDu03ui0PtWeSSTH">
    <mxGraphModel dx="2187" dy="843" grid="1" gridSize="10" guides="1" tooltips="1" connect="1" arrows="1" fold="1" page="1" pageScale="1" pageWidth="827" pageHeight="1169" math="0" shadow="0">
      <root>
        <mxCell id="0" />
        <mxCell id="1" parent="0" />
        <mxCell id="_r9maqkyMBtUnsPMcbrM-1" value="&lt;font style=&quot;font-size: 16px;&quot;&gt;Guest&lt;/font&gt;" style="shape=umlActor;verticalLabelPosition=bottom;verticalAlign=top;html=1;outlineConnect=0;" parent="1" vertex="1">
          <mxGeometry x="-400" y="280" width="40" height="80" as="geometry" />
        </mxCell>
        <mxCell id="_r9maqkyMBtUnsPMcbrM-4" value="&lt;font style=&quot;font-size: 16px;&quot;&gt;Book room&lt;/font&gt;" style="ellipse;whiteSpace=wrap;html=1;" parent="1" vertex="1">
          <mxGeometry x="110" y="200" width="140" height="60" as="geometry" />
        </mxCell>
        <mxCell id="_r9maqkyMBtUnsPMcbrM-5" value="&lt;font style=&quot;font-size: 16px;&quot;&gt;Payment&lt;/font&gt;" style="ellipse;whiteSpace=wrap;html=1;" parent="1" vertex="1">
          <mxGeometry x="-10" y="80" width="140" height="60" as="geometry" />
        </mxCell>
        <mxCell id="_r9maqkyMBtUnsPMcbrM-6" value="&lt;font style=&quot;font-size: 15px;&quot;&gt;View account&lt;/font&gt;" style="ellipse;whiteSpace=wrap;html=1;" parent="1" vertex="1">
          <mxGeometry x="110" y="280" width="140" height="60" as="geometry" />
        </mxCell>
        <mxCell id="_r9maqkyMBtUnsPMcbrM-7" value="&lt;font style=&quot;font-size: 16px;&quot;&gt;Register new account&lt;/font&gt;" style="ellipse;whiteSpace=wrap;html=1;" parent="1" vertex="1">
          <mxGeometry x="110" y="360" width="140" height="60" as="geometry" />
        </mxCell>
        <mxCell id="_r9maqkyMBtUnsPMcbrM-8" value="&lt;font style=&quot;font-size: 16px;&quot;&gt;Print booking&lt;/font&gt;" style="ellipse;whiteSpace=wrap;html=1;" parent="1" vertex="1">
          <mxGeometry x="110" y="680" width="140" height="60" as="geometry" />
        </mxCell>
        <mxCell id="_r9maqkyMBtUnsPMcbrM-9" value="&lt;font style=&quot;font-size: 16px;&quot;&gt;Cancel booking&lt;/font&gt;" style="ellipse;whiteSpace=wrap;html=1;" parent="1" vertex="1">
          <mxGeometry x="110" y="440" width="140" height="60" as="geometry" />
        </mxCell>
        <mxCell id="_r9maqkyMBtUnsPMcbrM-10" value="&lt;font style=&quot;font-size: 16px;&quot;&gt;Login / Logout&lt;/font&gt;" style="ellipse;whiteSpace=wrap;html=1;" parent="1" vertex="1">
          <mxGeometry x="110" y="760" width="140" height="60" as="geometry" />
        </mxCell>
        <mxCell id="_r9maqkyMBtUnsPMcbrM-11" value="&lt;font style=&quot;font-size: 16px;&quot;&gt;Update booking&lt;/font&gt;" style="ellipse;whiteSpace=wrap;html=1;" parent="1" vertex="1">
          <mxGeometry x="110" y="840" width="140" height="60" as="geometry" />
        </mxCell>
        <mxCell id="_r9maqkyMBtUnsPMcbrM-16" value="" style="endArrow=none;html=1;rounded=0;entryX=0;entryY=0.5;entryDx=0;entryDy=0;exitX=1;exitY=0.3333333333333333;exitDx=0;exitDy=0;exitPerimeter=0;" parent="1" source="_r9maqkyMBtUnsPMcbrM-1" target="_r9maqkyMBtUnsPMcbrM-4" edge="1">
          <mxGeometry width="50" height="50" relative="1" as="geometry">
            <mxPoint x="80" y="400" as="sourcePoint" />
            <mxPoint x="300" y="260" as="targetPoint" />
          </mxGeometry>
        </mxCell>
        <mxCell id="_r9maqkyMBtUnsPMcbrM-20" value="" style="endArrow=none;html=1;rounded=0;entryX=0;entryY=0.5;entryDx=0;entryDy=0;exitX=1;exitY=0.3333333333333333;exitDx=0;exitDy=0;exitPerimeter=0;" parent="1" source="_r9maqkyMBtUnsPMcbrM-1" target="_r9maqkyMBtUnsPMcbrM-7" edge="1">
          <mxGeometry width="50" height="50" relative="1" as="geometry">
            <mxPoint x="250" y="380" as="sourcePoint" />
            <mxPoint x="300" y="330" as="targetPoint" />
          </mxGeometry>
        </mxCell>
        <mxCell id="_r9maqkyMBtUnsPMcbrM-21" value="" style="endArrow=none;html=1;rounded=0;entryX=0;entryY=0.5;entryDx=0;entryDy=0;exitX=1;exitY=0.3333333333333333;exitDx=0;exitDy=0;exitPerimeter=0;" parent="1" source="_r9maqkyMBtUnsPMcbrM-1" target="_r9maqkyMBtUnsPMcbrM-6" edge="1">
          <mxGeometry width="50" height="50" relative="1" as="geometry">
            <mxPoint x="80" y="400" as="sourcePoint" />
            <mxPoint x="300" y="400" as="targetPoint" />
          </mxGeometry>
        </mxCell>
        <mxCell id="_r9maqkyMBtUnsPMcbrM-22" value="" style="endArrow=none;html=1;rounded=0;entryX=1;entryY=0.3333333333333333;entryDx=0;entryDy=0;entryPerimeter=0;exitX=0;exitY=0.5;exitDx=0;exitDy=0;" parent="1" source="_r9maqkyMBtUnsPMcbrM-9" target="_r9maqkyMBtUnsPMcbrM-1" edge="1">
          <mxGeometry width="50" height="50" relative="1" as="geometry">
            <mxPoint x="250" y="590" as="sourcePoint" />
            <mxPoint x="300" y="540" as="targetPoint" />
          </mxGeometry>
        </mxCell>
        <mxCell id="_r9maqkyMBtUnsPMcbrM-23" value="" style="endArrow=none;html=1;rounded=0;exitX=1;exitY=0.3333333333333333;exitDx=0;exitDy=0;exitPerimeter=0;entryX=0;entryY=0.5;entryDx=0;entryDy=0;" parent="1" source="_r9maqkyMBtUnsPMcbrM-1" target="_r9maqkyMBtUnsPMcbrM-10" edge="1">
          <mxGeometry width="50" height="50" relative="1" as="geometry">
            <mxPoint x="250" y="520" as="sourcePoint" />
            <mxPoint x="300" y="470" as="targetPoint" />
          </mxGeometry>
        </mxCell>
        <mxCell id="_r9maqkyMBtUnsPMcbrM-24" value="" style="endArrow=none;html=1;rounded=0;entryX=1;entryY=0.3333333333333333;entryDx=0;entryDy=0;entryPerimeter=0;exitX=0;exitY=0.5;exitDx=0;exitDy=0;" parent="1" source="_r9maqkyMBtUnsPMcbrM-8" target="_r9maqkyMBtUnsPMcbrM-1" edge="1">
          <mxGeometry width="50" height="50" relative="1" as="geometry">
            <mxPoint x="250" y="660" as="sourcePoint" />
            <mxPoint x="300" y="610" as="targetPoint" />
          </mxGeometry>
        </mxCell>
        <mxCell id="_r9maqkyMBtUnsPMcbrM-25" value="&lt;font style=&quot;font-size: 16px;&quot;&gt;Search room / booking&lt;/font&gt;" style="ellipse;whiteSpace=wrap;html=1;" parent="1" vertex="1">
          <mxGeometry x="110" y="920" width="140" height="60" as="geometry" />
        </mxCell>
        <mxCell id="_r9maqkyMBtUnsPMcbrM-26" value="&lt;font style=&quot;font-size: 16px;&quot;&gt;View booking&lt;/font&gt;" style="ellipse;whiteSpace=wrap;html=1;" parent="1" vertex="1">
          <mxGeometry x="110" y="1000" width="140" height="60" as="geometry" />
        </mxCell>
        <mxCell id="_r9maqkyMBtUnsPMcbrM-27" value="" style="endArrow=none;html=1;rounded=0;entryX=1;entryY=0.3333333333333333;entryDx=0;entryDy=0;entryPerimeter=0;exitX=0;exitY=0.5;exitDx=0;exitDy=0;" parent="1" source="_r9maqkyMBtUnsPMcbrM-11" target="_r9maqkyMBtUnsPMcbrM-1" edge="1">
          <mxGeometry width="50" height="50" relative="1" as="geometry">
            <mxPoint x="250" y="790" as="sourcePoint" />
            <mxPoint x="300" y="740" as="targetPoint" />
          </mxGeometry>
        </mxCell>
        <mxCell id="_r9maqkyMBtUnsPMcbrM-28" value="&lt;font style=&quot;font-size: 16px;&quot;&gt;Return room key&lt;/font&gt;" style="ellipse;whiteSpace=wrap;html=1;" parent="1" vertex="1">
          <mxGeometry x="110" y="1080" width="140" height="60" as="geometry" />
        </mxCell>
        <mxCell id="_r9maqkyMBtUnsPMcbrM-29" value="" style="endArrow=none;html=1;rounded=0;exitX=1;exitY=0.3333333333333333;exitDx=0;exitDy=0;exitPerimeter=0;entryX=0;entryY=0.5;entryDx=0;entryDy=0;" parent="1" source="_r9maqkyMBtUnsPMcbrM-1" target="_r9maqkyMBtUnsPMcbrM-25" edge="1">
          <mxGeometry width="50" height="50" relative="1" as="geometry">
            <mxPoint x="-80" y="620" as="sourcePoint" />
            <mxPoint x="120" y="990" as="targetPoint" />
          </mxGeometry>
        </mxCell>
        <mxCell id="_r9maqkyMBtUnsPMcbrM-30" value="" style="endArrow=none;html=1;rounded=0;entryX=0;entryY=0.5;entryDx=0;entryDy=0;exitX=1;exitY=0.3333333333333333;exitDx=0;exitDy=0;exitPerimeter=0;" parent="1" source="_r9maqkyMBtUnsPMcbrM-1" target="_r9maqkyMBtUnsPMcbrM-26" edge="1">
          <mxGeometry width="50" height="50" relative="1" as="geometry">
            <mxPoint y="1030" as="sourcePoint" />
            <mxPoint x="40" y="1000" as="targetPoint" />
          </mxGeometry>
        </mxCell>
        <mxCell id="_r9maqkyMBtUnsPMcbrM-31" value="" style="endArrow=none;html=1;rounded=0;entryX=0;entryY=0.5;entryDx=0;entryDy=0;exitX=1;exitY=0.3333333333333333;exitDx=0;exitDy=0;exitPerimeter=0;" parent="1" source="_r9maqkyMBtUnsPMcbrM-1" target="_r9maqkyMBtUnsPMcbrM-28" edge="1">
          <mxGeometry width="50" height="50" relative="1" as="geometry">
            <mxPoint y="1030" as="sourcePoint" />
            <mxPoint x="40" y="1000" as="targetPoint" />
          </mxGeometry>
        </mxCell>
        <mxCell id="_r9maqkyMBtUnsPMcbrM-32" value="&lt;font style=&quot;font-size: 16px;&quot;&gt;Receptionist&lt;/font&gt;" style="shape=umlActor;verticalLabelPosition=bottom;verticalAlign=top;html=1;outlineConnect=0;" parent="1" vertex="1">
          <mxGeometry x="827" y="280" width="60" height="120" as="geometry" />
        </mxCell>
        <mxCell id="_r9maqkyMBtUnsPMcbrM-34" value="" style="endArrow=none;html=1;rounded=0;entryX=1;entryY=0.5;entryDx=0;entryDy=0;exitX=0;exitY=0.3333333333333333;exitDx=0;exitDy=0;exitPerimeter=0;" parent="1" source="_r9maqkyMBtUnsPMcbrM-32" target="_r9maqkyMBtUnsPMcbrM-4" edge="1">
          <mxGeometry width="50" height="50" relative="1" as="geometry">
            <mxPoint x="220" y="430" as="sourcePoint" />
            <mxPoint x="270" y="380" as="targetPoint" />
          </mxGeometry>
        </mxCell>
        <mxCell id="_r9maqkyMBtUnsPMcbrM-35" value="" style="endArrow=none;html=1;rounded=0;entryX=1;entryY=0.5;entryDx=0;entryDy=0;exitX=0;exitY=0.3333333333333333;exitDx=0;exitDy=0;exitPerimeter=0;" parent="1" source="_r9maqkyMBtUnsPMcbrM-32" target="_r9maqkyMBtUnsPMcbrM-6" edge="1">
          <mxGeometry width="50" height="50" relative="1" as="geometry">
            <mxPoint x="220" y="450" as="sourcePoint" />
            <mxPoint x="270" y="400" as="targetPoint" />
          </mxGeometry>
        </mxCell>
        <mxCell id="_r9maqkyMBtUnsPMcbrM-36" value="" style="endArrow=none;html=1;rounded=0;entryX=1;entryY=0.5;entryDx=0;entryDy=0;exitX=0;exitY=0.3333333333333333;exitDx=0;exitDy=0;exitPerimeter=0;" parent="1" source="_r9maqkyMBtUnsPMcbrM-32" target="_r9maqkyMBtUnsPMcbrM-7" edge="1">
          <mxGeometry width="50" height="50" relative="1" as="geometry">
            <mxPoint x="220" y="450" as="sourcePoint" />
            <mxPoint x="270" y="400" as="targetPoint" />
          </mxGeometry>
        </mxCell>
        <mxCell id="_r9maqkyMBtUnsPMcbrM-37" value="" style="endArrow=none;html=1;rounded=0;entryX=1;entryY=0.5;entryDx=0;entryDy=0;exitX=0;exitY=0.3333333333333333;exitDx=0;exitDy=0;exitPerimeter=0;" parent="1" source="_r9maqkyMBtUnsPMcbrM-32" target="_r9maqkyMBtUnsPMcbrM-9" edge="1">
          <mxGeometry width="50" height="50" relative="1" as="geometry">
            <mxPoint x="220" y="790" as="sourcePoint" />
            <mxPoint x="270" y="740" as="targetPoint" />
          </mxGeometry>
        </mxCell>
        <mxCell id="_r9maqkyMBtUnsPMcbrM-38" value="" style="endArrow=none;html=1;rounded=0;entryX=1;entryY=0.5;entryDx=0;entryDy=0;exitX=0;exitY=0.3333333333333333;exitDx=0;exitDy=0;exitPerimeter=0;" parent="1" source="_r9maqkyMBtUnsPMcbrM-32" target="_r9maqkyMBtUnsPMcbrM-8" edge="1">
          <mxGeometry width="50" height="50" relative="1" as="geometry">
            <mxPoint x="220" y="790" as="sourcePoint" />
            <mxPoint x="270" y="740" as="targetPoint" />
          </mxGeometry>
        </mxCell>
        <mxCell id="_r9maqkyMBtUnsPMcbrM-39" value="" style="endArrow=none;html=1;rounded=0;entryX=1;entryY=0.5;entryDx=0;entryDy=0;exitX=0;exitY=0.3333333333333333;exitDx=0;exitDy=0;exitPerimeter=0;" parent="1" source="_r9maqkyMBtUnsPMcbrM-32" target="_r9maqkyMBtUnsPMcbrM-10" edge="1">
          <mxGeometry width="50" height="50" relative="1" as="geometry">
            <mxPoint x="220" y="790" as="sourcePoint" />
            <mxPoint x="270" y="740" as="targetPoint" />
          </mxGeometry>
        </mxCell>
        <mxCell id="_r9maqkyMBtUnsPMcbrM-40" value="" style="endArrow=none;html=1;rounded=0;exitX=1;exitY=0.5;exitDx=0;exitDy=0;entryX=0;entryY=0.3333333333333333;entryDx=0;entryDy=0;entryPerimeter=0;" parent="1" source="_r9maqkyMBtUnsPMcbrM-11" target="_r9maqkyMBtUnsPMcbrM-32" edge="1">
          <mxGeometry width="50" height="50" relative="1" as="geometry">
            <mxPoint x="220" y="790" as="sourcePoint" />
            <mxPoint x="560" y="670" as="targetPoint" />
          </mxGeometry>
        </mxCell>
        <mxCell id="_r9maqkyMBtUnsPMcbrM-41" value="" style="endArrow=none;html=1;rounded=0;entryX=1;entryY=0.5;entryDx=0;entryDy=0;exitX=0;exitY=0.3333333333333333;exitDx=0;exitDy=0;exitPerimeter=0;" parent="1" source="_r9maqkyMBtUnsPMcbrM-32" target="_r9maqkyMBtUnsPMcbrM-25" edge="1">
          <mxGeometry width="50" height="50" relative="1" as="geometry">
            <mxPoint x="220" y="790" as="sourcePoint" />
            <mxPoint x="270" y="740" as="targetPoint" />
          </mxGeometry>
        </mxCell>
        <mxCell id="_r9maqkyMBtUnsPMcbrM-42" value="" style="endArrow=none;html=1;rounded=0;entryX=1;entryY=0.5;entryDx=0;entryDy=0;exitX=0;exitY=0.3333333333333333;exitDx=0;exitDy=0;exitPerimeter=0;" parent="1" source="_r9maqkyMBtUnsPMcbrM-32" target="_r9maqkyMBtUnsPMcbrM-26" edge="1">
          <mxGeometry width="50" height="50" relative="1" as="geometry">
            <mxPoint x="220" y="1030" as="sourcePoint" />
            <mxPoint x="270" y="980" as="targetPoint" />
          </mxGeometry>
        </mxCell>
        <mxCell id="_r9maqkyMBtUnsPMcbrM-44" value="" style="endArrow=none;html=1;rounded=0;exitX=1;exitY=0.3333333333333333;exitDx=0;exitDy=0;exitPerimeter=0;entryX=0;entryY=0.5;entryDx=0;entryDy=0;" parent="1" source="_r9maqkyMBtUnsPMcbrM-1" target="_r9maqkyMBtUnsPMcbrM-5" edge="1">
          <mxGeometry width="50" height="50" relative="1" as="geometry">
            <mxPoint x="220" y="520" as="sourcePoint" />
            <mxPoint x="270" y="470" as="targetPoint" />
          </mxGeometry>
        </mxCell>
        <mxCell id="_r9maqkyMBtUnsPMcbrM-46" value="&lt;font style=&quot;font-size: 16px;&quot;&gt;Update room&lt;/font&gt;" style="ellipse;whiteSpace=wrap;html=1;" parent="1" vertex="1">
          <mxGeometry x="430" y="40" width="140" height="60" as="geometry" />
        </mxCell>
        <mxCell id="_r9maqkyMBtUnsPMcbrM-47" value="&lt;font style=&quot;font-size: 16px;&quot;&gt;Add room&lt;/font&gt;" style="ellipse;whiteSpace=wrap;html=1;" parent="1" vertex="1">
          <mxGeometry x="430" y="120" width="140" height="60" as="geometry" />
        </mxCell>
        <mxCell id="_r9maqkyMBtUnsPMcbrM-49" value="&lt;font style=&quot;font-size: 16px;&quot;&gt;Remove room&lt;/font&gt;" style="ellipse;whiteSpace=wrap;html=1;" parent="1" vertex="1">
          <mxGeometry x="430" y="200" width="140" height="60" as="geometry" />
        </mxCell>
        <mxCell id="_r9maqkyMBtUnsPMcbrM-50" value="" style="endArrow=none;html=1;rounded=0;entryX=1;entryY=0.5;entryDx=0;entryDy=0;exitX=0;exitY=0.3333333333333333;exitDx=0;exitDy=0;exitPerimeter=0;" parent="1" source="_r9maqkyMBtUnsPMcbrM-32" target="_r9maqkyMBtUnsPMcbrM-49" edge="1">
          <mxGeometry width="50" height="50" relative="1" as="geometry">
            <mxPoint x="440" y="510" as="sourcePoint" />
            <mxPoint x="490" y="460" as="targetPoint" />
          </mxGeometry>
        </mxCell>
        <mxCell id="_r9maqkyMBtUnsPMcbrM-51" value="" style="endArrow=none;html=1;rounded=0;entryX=1;entryY=0.5;entryDx=0;entryDy=0;exitX=0;exitY=0.3333333333333333;exitDx=0;exitDy=0;exitPerimeter=0;" parent="1" source="_r9maqkyMBtUnsPMcbrM-32" target="_r9maqkyMBtUnsPMcbrM-47" edge="1">
          <mxGeometry width="50" height="50" relative="1" as="geometry">
            <mxPoint x="440" y="510" as="sourcePoint" />
            <mxPoint x="490" y="460" as="targetPoint" />
          </mxGeometry>
        </mxCell>
        <mxCell id="_r9maqkyMBtUnsPMcbrM-52" value="" style="endArrow=none;html=1;rounded=0;entryX=1;entryY=0.5;entryDx=0;entryDy=0;exitX=0;exitY=0.3333333333333333;exitDx=0;exitDy=0;exitPerimeter=0;" parent="1" source="_r9maqkyMBtUnsPMcbrM-32" target="_r9maqkyMBtUnsPMcbrM-46" edge="1">
          <mxGeometry width="50" height="50" relative="1" as="geometry">
            <mxPoint x="440" y="510" as="sourcePoint" />
            <mxPoint x="490" y="460" as="targetPoint" />
          </mxGeometry>
        </mxCell>
        <mxCell id="_r9maqkyMBtUnsPMcbrM-53" value="&lt;font style=&quot;font-size: 16px;&quot;&gt;Refund payment&lt;/font&gt;" style="ellipse;whiteSpace=wrap;html=1;" parent="1" vertex="1">
          <mxGeometry x="160" y="560" width="140" height="60" as="geometry" />
        </mxCell>
        <mxCell id="_r9maqkyMBtUnsPMcbrM-58" value="&lt;font style=&quot;font-size: 16px;&quot;&gt;Check in guest&lt;/font&gt;" style="ellipse;whiteSpace=wrap;html=1;" parent="1" vertex="1">
          <mxGeometry x="470" y="770" width="140" height="60" as="geometry" />
        </mxCell>
        <mxCell id="_r9maqkyMBtUnsPMcbrM-59" value="&lt;font style=&quot;font-size: 16px;&quot;&gt;Check out guest&lt;/font&gt;" style="ellipse;whiteSpace=wrap;html=1;" parent="1" vertex="1">
          <mxGeometry x="590" y="960" width="140" height="60" as="geometry" />
        </mxCell>
        <mxCell id="_r9maqkyMBtUnsPMcbrM-60" value="" style="endArrow=block;html=1;rounded=0;exitX=0;exitY=0.5;exitDx=0;exitDy=0;entryX=1;entryY=0.5;entryDx=0;entryDy=0;dashed=1;endFill=0;" parent="1" source="_r9maqkyMBtUnsPMcbrM-59" target="_r9maqkyMBtUnsPMcbrM-28" edge="1">
          <mxGeometry width="50" height="50" relative="1" as="geometry">
            <mxPoint x="480" y="780" as="sourcePoint" />
            <mxPoint x="530" y="730" as="targetPoint" />
          </mxGeometry>
        </mxCell>
        <mxCell id="_r9maqkyMBtUnsPMcbrM-61" value="&lt;font style=&quot;font-size: 16px;&quot;&gt;&amp;lt;&amp;lt;include&amp;gt;&amp;gt;&lt;/font&gt;" style="edgeLabel;html=1;align=center;verticalAlign=middle;resizable=0;points=[];" parent="_r9maqkyMBtUnsPMcbrM-60" vertex="1" connectable="0">
          <mxGeometry x="-0.1192" y="-3" relative="1" as="geometry">
            <mxPoint x="-8" y="7" as="offset" />
          </mxGeometry>
        </mxCell>
        <mxCell id="_r9maqkyMBtUnsPMcbrM-62" value="" style="endArrow=none;html=1;rounded=0;entryX=0;entryY=0.3333333333333333;entryDx=0;entryDy=0;entryPerimeter=0;exitX=0.5;exitY=0;exitDx=0;exitDy=0;" parent="1" source="_r9maqkyMBtUnsPMcbrM-59" target="_r9maqkyMBtUnsPMcbrM-32" edge="1">
          <mxGeometry width="50" height="50" relative="1" as="geometry">
            <mxPoint x="480" y="780" as="sourcePoint" />
            <mxPoint x="530" y="730" as="targetPoint" />
          </mxGeometry>
        </mxCell>
        <mxCell id="_r9maqkyMBtUnsPMcbrM-63" value="" style="endArrow=none;html=1;rounded=0;entryX=0;entryY=0.3333333333333333;entryDx=0;entryDy=0;entryPerimeter=0;exitX=0.5;exitY=0;exitDx=0;exitDy=0;" parent="1" source="_r9maqkyMBtUnsPMcbrM-58" target="_r9maqkyMBtUnsPMcbrM-32" edge="1">
          <mxGeometry width="50" height="50" relative="1" as="geometry">
            <mxPoint x="480" y="680" as="sourcePoint" />
            <mxPoint x="530" y="630" as="targetPoint" />
          </mxGeometry>
        </mxCell>
        <mxCell id="_r9maqkyMBtUnsPMcbrM-64" value="&lt;font style=&quot;font-size: 16px;&quot;&gt;Issue room key&lt;/font&gt;" style="ellipse;whiteSpace=wrap;html=1;" parent="1" vertex="1">
          <mxGeometry x="470" y="880" width="140" height="60" as="geometry" />
        </mxCell>
        <mxCell id="_r9maqkyMBtUnsPMcbrM-65" value="" style="endArrow=block;html=1;rounded=0;exitX=0.5;exitY=1;exitDx=0;exitDy=0;entryX=0.5;entryY=0;entryDx=0;entryDy=0;dashed=1;endFill=0;" parent="1" source="_r9maqkyMBtUnsPMcbrM-58" target="_r9maqkyMBtUnsPMcbrM-64" edge="1">
          <mxGeometry width="50" height="50" relative="1" as="geometry">
            <mxPoint x="410" y="850" as="sourcePoint" />
            <mxPoint x="170" y="970" as="targetPoint" />
          </mxGeometry>
        </mxCell>
        <mxCell id="_r9maqkyMBtUnsPMcbrM-66" value="&lt;font style=&quot;font-size: 16px;&quot;&gt;&amp;lt;&amp;lt;include&amp;gt;&amp;gt;&lt;/font&gt;" style="edgeLabel;html=1;align=center;verticalAlign=middle;resizable=0;points=[];" parent="_r9maqkyMBtUnsPMcbrM-65" vertex="1" connectable="0">
          <mxGeometry x="-0.1192" y="-3" relative="1" as="geometry">
            <mxPoint x="3" as="offset" />
          </mxGeometry>
        </mxCell>
        <mxCell id="_r9maqkyMBtUnsPMcbrM-67" value="" style="endArrow=block;html=1;rounded=0;exitX=0.5;exitY=1;exitDx=0;exitDy=0;entryX=0.5;entryY=0;entryDx=0;entryDy=0;dashed=1;endFill=0;" parent="1" source="_r9maqkyMBtUnsPMcbrM-9" target="_r9maqkyMBtUnsPMcbrM-53" edge="1">
          <mxGeometry width="50" height="50" relative="1" as="geometry">
            <mxPoint x="420" y="860" as="sourcePoint" />
            <mxPoint x="180" y="980" as="targetPoint" />
          </mxGeometry>
        </mxCell>
        <mxCell id="_r9maqkyMBtUnsPMcbrM-68" value="&lt;font style=&quot;font-size: 16px;&quot;&gt;&amp;lt;&amp;lt;include&amp;gt;&amp;gt;&lt;/font&gt;" style="edgeLabel;html=1;align=center;verticalAlign=middle;resizable=0;points=[];" parent="_r9maqkyMBtUnsPMcbrM-67" vertex="1" connectable="0">
          <mxGeometry x="-0.1192" y="-3" relative="1" as="geometry">
            <mxPoint x="6" as="offset" />
          </mxGeometry>
        </mxCell>
        <mxCell id="_r9maqkyMBtUnsPMcbrM-69" value="" style="endArrow=block;html=1;rounded=0;exitX=0.5;exitY=0;exitDx=0;exitDy=0;entryX=1;entryY=1;entryDx=0;entryDy=0;dashed=1;endFill=0;" parent="1" source="_r9maqkyMBtUnsPMcbrM-4" target="_r9maqkyMBtUnsPMcbrM-5" edge="1">
          <mxGeometry width="50" height="50" relative="1" as="geometry">
            <mxPoint x="360" y="-70" as="sourcePoint" />
            <mxPoint x="120" y="50" as="targetPoint" />
          </mxGeometry>
        </mxCell>
        <mxCell id="_r9maqkyMBtUnsPMcbrM-70" value="&lt;font style=&quot;font-size: 16px;&quot;&gt;&amp;lt;&amp;lt;include&amp;gt;&amp;gt;&lt;/font&gt;" style="edgeLabel;html=1;align=center;verticalAlign=middle;resizable=0;points=[];" parent="_r9maqkyMBtUnsPMcbrM-69" vertex="1" connectable="0">
          <mxGeometry x="-0.1192" y="-3" relative="1" as="geometry">
            <mxPoint x="-1" y="-8" as="offset" />
          </mxGeometry>
        </mxCell>
        <mxCell id="_r9maqkyMBtUnsPMcbrM-72" value="" style="endArrow=none;html=1;rounded=0;entryX=0;entryY=0.3333333333333333;entryDx=0;entryDy=0;entryPerimeter=0;exitX=1;exitY=0.5;exitDx=0;exitDy=0;" parent="1" source="_r9maqkyMBtUnsPMcbrM-64" target="_r9maqkyMBtUnsPMcbrM-32" edge="1">
          <mxGeometry width="50" height="50" relative="1" as="geometry">
            <mxPoint x="480" y="580" as="sourcePoint" />
            <mxPoint x="530" y="530" as="targetPoint" />
          </mxGeometry>
        </mxCell>
        <mxCell id="_r9maqkyMBtUnsPMcbrM-73" value="&lt;font style=&quot;font-size: 16px;&quot;&gt;Manager&lt;/font&gt;" style="shape=umlActor;verticalLabelPosition=bottom;verticalAlign=top;html=1;outlineConnect=0;" parent="1" vertex="1">
          <mxGeometry x="1000" y="440" width="60" height="120" as="geometry" />
        </mxCell>
        <mxCell id="_r9maqkyMBtUnsPMcbrM-75" value="" style="endArrow=classic;html=1;rounded=0;entryX=1;entryY=0.3333333333333333;entryDx=0;entryDy=0;entryPerimeter=0;exitX=0;exitY=0.3333333333333333;exitDx=0;exitDy=0;exitPerimeter=0;" parent="1" source="_r9maqkyMBtUnsPMcbrM-73" target="_r9maqkyMBtUnsPMcbrM-32" edge="1">
          <mxGeometry width="50" height="50" relative="1" as="geometry">
            <mxPoint x="480" y="680" as="sourcePoint" />
            <mxPoint x="530" y="630" as="targetPoint" />
          </mxGeometry>
        </mxCell>
        <mxCell id="_r9maqkyMBtUnsPMcbrM-76" value="&lt;font style=&quot;font-size: 16px;&quot;&gt;Add / modify employee&lt;/font&gt;" style="ellipse;whiteSpace=wrap;html=1;" parent="1" vertex="1">
          <mxGeometry x="827" y="560" width="140" height="60" as="geometry" />
        </mxCell>
        <mxCell id="_r9maqkyMBtUnsPMcbrM-77" value="&lt;font style=&quot;font-size: 16px;&quot;&gt;Issue employee card&lt;/font&gt;" style="ellipse;whiteSpace=wrap;html=1;" parent="1" vertex="1">
          <mxGeometry x="827" y="460" width="140" height="60" as="geometry" />
        </mxCell>
        <mxCell id="_r9maqkyMBtUnsPMcbrM-82" value="" style="endArrow=none;html=1;rounded=0;entryX=1;entryY=0.5;entryDx=0;entryDy=0;exitX=0;exitY=0.3333333333333333;exitDx=0;exitDy=0;exitPerimeter=0;strokeWidth=2;fillColor=#ffe6cc;strokeColor=#d79b00;" parent="1" source="_r9maqkyMBtUnsPMcbrM-73" target="_r9maqkyMBtUnsPMcbrM-77" edge="1">
          <mxGeometry width="50" height="50" relative="1" as="geometry">
            <mxPoint x="480" y="490" as="sourcePoint" />
            <mxPoint x="530" y="440" as="targetPoint" />
          </mxGeometry>
        </mxCell>
        <mxCell id="_r9maqkyMBtUnsPMcbrM-83" value="" style="endArrow=none;html=1;rounded=0;entryX=0;entryY=0.3333333333333333;entryDx=0;entryDy=0;entryPerimeter=0;exitX=1;exitY=0.5;exitDx=0;exitDy=0;strokeWidth=2;fillColor=#ffe6cc;strokeColor=#d79b00;" parent="1" source="_r9maqkyMBtUnsPMcbrM-76" target="_r9maqkyMBtUnsPMcbrM-73" edge="1">
          <mxGeometry width="50" height="50" relative="1" as="geometry">
            <mxPoint x="480" y="490" as="sourcePoint" />
            <mxPoint x="530" y="440" as="targetPoint" />
          </mxGeometry>
        </mxCell>
      </root>
    </mxGraphModel>
  </diagram>
  <diagram id="U_dh9laHHZgw0wcTx-mj" name="Page-2">
    <mxGraphModel dx="301" dy="581" grid="1" gridSize="10" guides="1" tooltips="1" connect="1" arrows="1" fold="1" page="1" pageScale="1" pageWidth="827" pageHeight="1169" math="0" shadow="0">
      <root>
        <mxCell id="0" />
        <mxCell id="1" parent="0" />
        <mxCell id="HfvFaznO5EF5d6R5bnov-1" value="A" style="whiteSpace=wrap;html=1;aspect=fixed;fillColor=#66b2ff;strokeColor=#808080;" vertex="1" parent="1">
          <mxGeometry x="80" y="320" width="40" height="40" as="geometry" />
        </mxCell>
        <mxCell id="HfvFaznO5EF5d6R5bnov-2" value="E" style="whiteSpace=wrap;html=1;aspect=fixed;fillColor=#66B2FF;strokeColor=#808080;" vertex="1" parent="1">
          <mxGeometry x="120" y="320" width="40" height="40" as="geometry" />
        </mxCell>
        <mxCell id="HfvFaznO5EF5d6R5bnov-3" value="I" style="whiteSpace=wrap;html=1;aspect=fixed;fillColor=#66B2FF;strokeColor=#808080;" vertex="1" parent="1">
          <mxGeometry x="160" y="320" width="40" height="40" as="geometry" />
        </mxCell>
        <mxCell id="HfvFaznO5EF5d6R5bnov-4" value="U" style="whiteSpace=wrap;html=1;aspect=fixed;fillColor=#66B2FF;strokeColor=#808080;" vertex="1" parent="1">
          <mxGeometry x="240" y="320" width="40" height="40" as="geometry" />
        </mxCell>
        <mxCell id="HfvFaznO5EF5d6R5bnov-5" value="" style="whiteSpace=wrap;html=1;aspect=fixed;fillColor=#ff6666;strokeColor=#808080;" vertex="1" parent="1">
          <mxGeometry x="440" y="140" width="40" height="40" as="geometry" />
        </mxCell>
        <mxCell id="HfvFaznO5EF5d6R5bnov-7" value="" style="endArrow=block;html=1;rounded=0;exitX=1;exitY=0;exitDx=0;exitDy=0;endFill=1;strokeColor=#808080;" edge="1" parent="1" source="HfvFaznO5EF5d6R5bnov-8">
          <mxGeometry width="50" height="50" relative="1" as="geometry">
            <mxPoint x="190" y="240" as="sourcePoint" />
            <mxPoint x="520" y="110" as="targetPoint" />
          </mxGeometry>
        </mxCell>
        <mxCell id="HfvFaznO5EF5d6R5bnov-8" value="" style="whiteSpace=wrap;html=1;aspect=fixed;fillColor=#ff6666;strokeColor=#808080;" vertex="1" parent="1">
          <mxGeometry x="480" y="140" width="40" height="40" as="geometry" />
        </mxCell>
        <mxCell id="HfvFaznO5EF5d6R5bnov-9" value="" style="whiteSpace=wrap;html=1;aspect=fixed;fillColor=#ff6666;strokeColor=#808080;" vertex="1" parent="1">
          <mxGeometry x="520" y="140" width="40" height="40" as="geometry" />
        </mxCell>
        <mxCell id="HfvFaznO5EF5d6R5bnov-10" value="O" style="whiteSpace=wrap;html=1;aspect=fixed;fillColor=#ff6666;strokeColor=#808080;" vertex="1" parent="1">
          <mxGeometry x="200" y="300" width="40" height="40" as="geometry" />
        </mxCell>
        <mxCell id="HfvFaznO5EF5d6R5bnov-11" value="" style="endArrow=block;html=1;rounded=0;exitX=0.5;exitY=0;exitDx=0;exitDy=0;endFill=1;strokeColor=#808080;" edge="1" parent="1" source="HfvFaznO5EF5d6R5bnov-10">
          <mxGeometry width="50" height="50" relative="1" as="geometry">
            <mxPoint x="40" y="280" as="sourcePoint" />
            <mxPoint x="220" y="270" as="targetPoint" />
          </mxGeometry>
        </mxCell>
        <mxCell id="HfvFaznO5EF5d6R5bnov-12" value="Remove &quot;O&quot;" style="text;html=1;strokeColor=none;fillColor=none;align=center;verticalAlign=middle;whiteSpace=wrap;rounded=0;fontColor=#808080;" vertex="1" parent="1">
          <mxGeometry x="110" y="280" width="60" height="30" as="geometry" />
        </mxCell>
        <mxCell id="HfvFaznO5EF5d6R5bnov-13" value="" style="whiteSpace=wrap;html=1;aspect=fixed;fillColor=#66b2ff;strokeColor=#808080;" vertex="1" parent="1">
          <mxGeometry x="280" y="160" width="40" height="40" as="geometry" />
        </mxCell>
        <mxCell id="HfvFaznO5EF5d6R5bnov-14" value="" style="whiteSpace=wrap;html=1;aspect=fixed;fillColor=#66b2ff;strokeColor=#808080;" vertex="1" parent="1">
          <mxGeometry x="320" y="160" width="40" height="40" as="geometry" />
        </mxCell>
        <mxCell id="HfvFaznO5EF5d6R5bnov-15" value="" style="whiteSpace=wrap;html=1;aspect=fixed;fillColor=#66b2ff;strokeColor=#808080;" vertex="1" parent="1">
          <mxGeometry x="360" y="160" width="40" height="40" as="geometry" />
        </mxCell>
        <mxCell id="HfvFaznO5EF5d6R5bnov-16" value="" style="whiteSpace=wrap;html=1;aspect=fixed;fillColor=#66b2ff;strokeColor=#808080;" vertex="1" parent="1">
          <mxGeometry x="400" y="160" width="40" height="40" as="geometry" />
        </mxCell>
        <mxCell id="HfvFaznO5EF5d6R5bnov-17" value="" style="whiteSpace=wrap;html=1;aspect=fixed;fillColor=#66b2ff;strokeColor=#808080;" vertex="1" parent="1">
          <mxGeometry x="600" y="160" width="40" height="40" as="geometry" />
        </mxCell>
        <mxCell id="HfvFaznO5EF5d6R5bnov-18" value="" style="whiteSpace=wrap;html=1;aspect=fixed;fillColor=#66b2ff;strokeColor=#808080;" vertex="1" parent="1">
          <mxGeometry x="240" y="160" width="40" height="40" as="geometry" />
        </mxCell>
        <mxCell id="HfvFaznO5EF5d6R5bnov-19" value="" style="whiteSpace=wrap;html=1;aspect=fixed;fillColor=#ff6666;strokeColor=#808080;" vertex="1" parent="1">
          <mxGeometry x="560" y="140" width="40" height="40" as="geometry" />
        </mxCell>
        <mxCell id="HfvFaznO5EF5d6R5bnov-20" value="Range 5 to 9" style="text;html=1;strokeColor=none;fillColor=none;align=center;verticalAlign=middle;whiteSpace=wrap;rounded=0;fontColor=#808080;" vertex="1" parent="1">
          <mxGeometry x="260" y="120" width="160" height="30" as="geometry" />
        </mxCell>
        <mxCell id="HfvFaznO5EF5d6R5bnov-21" value="Iterable" style="rounded=0;whiteSpace=wrap;html=1;fillColor=#dae8fc;strokeColor=#6c8ebf;" vertex="1" parent="1">
          <mxGeometry x="240" y="560" width="120" height="40" as="geometry" />
        </mxCell>
        <mxCell id="HfvFaznO5EF5d6R5bnov-22" value="Collection" style="rounded=0;whiteSpace=wrap;html=1;fillColor=#dae8fc;strokeColor=#6c8ebf;" vertex="1" parent="1">
          <mxGeometry x="240" y="640" width="120" height="40" as="geometry" />
        </mxCell>
        <mxCell id="HfvFaznO5EF5d6R5bnov-23" value="" style="endArrow=blockThin;html=1;rounded=0;exitX=0.5;exitY=0;exitDx=0;exitDy=0;entryX=0.5;entryY=1;entryDx=0;entryDy=0;endFill=1;fillColor=#dae8fc;strokeColor=#6c8ebf;" edge="1" parent="1" source="HfvFaznO5EF5d6R5bnov-22" target="HfvFaznO5EF5d6R5bnov-21">
          <mxGeometry width="50" height="50" relative="1" as="geometry">
            <mxPoint x="320" y="680" as="sourcePoint" />
            <mxPoint x="370" y="630" as="targetPoint" />
          </mxGeometry>
        </mxCell>
        <mxCell id="HfvFaznO5EF5d6R5bnov-24" value="Queue" style="rounded=0;whiteSpace=wrap;html=1;fillColor=#dae8fc;strokeColor=#6c8ebf;" vertex="1" parent="1">
          <mxGeometry x="400" y="720" width="120" height="40" as="geometry" />
        </mxCell>
        <mxCell id="HfvFaznO5EF5d6R5bnov-25" value="List" style="rounded=0;whiteSpace=wrap;html=1;fillColor=#dae8fc;strokeColor=#6c8ebf;" vertex="1" parent="1">
          <mxGeometry x="80" y="720" width="120" height="40" as="geometry" />
        </mxCell>
        <mxCell id="HfvFaznO5EF5d6R5bnov-26" value="AbstractSequentialList" style="rounded=0;whiteSpace=wrap;html=1;fillColor=#dae8fc;strokeColor=#6c8ebf;" vertex="1" parent="1">
          <mxGeometry x="60" y="800" width="160" height="40" as="geometry" />
        </mxCell>
        <mxCell id="HfvFaznO5EF5d6R5bnov-28" value="Deque" style="rounded=0;whiteSpace=wrap;html=1;fillColor=#dae8fc;strokeColor=#6c8ebf;" vertex="1" parent="1">
          <mxGeometry x="400" y="800" width="120" height="40" as="geometry" />
        </mxCell>
        <mxCell id="HfvFaznO5EF5d6R5bnov-29" value="LinkedList" style="rounded=0;whiteSpace=wrap;html=1;fillColor=#dae8fc;strokeColor=#6c8ebf;" vertex="1" parent="1">
          <mxGeometry x="240" y="880" width="120" height="40" as="geometry" />
        </mxCell>
        <mxCell id="HfvFaznO5EF5d6R5bnov-31" value="" style="endArrow=blockThin;html=1;rounded=0;exitX=0.75;exitY=0;exitDx=0;exitDy=0;entryX=0.5;entryY=1;entryDx=0;entryDy=0;endFill=1;dashed=1;fillColor=#dae8fc;strokeColor=#6c8ebf;" edge="1" parent="1" source="HfvFaznO5EF5d6R5bnov-29" target="HfvFaznO5EF5d6R5bnov-28">
          <mxGeometry width="50" height="50" relative="1" as="geometry">
            <mxPoint x="300" y="880" as="sourcePoint" />
            <mxPoint x="350" y="830" as="targetPoint" />
            <Array as="points">
              <mxPoint x="330" y="860" />
              <mxPoint x="460" y="860" />
            </Array>
          </mxGeometry>
        </mxCell>
        <mxCell id="HfvFaznO5EF5d6R5bnov-32" value="Implements" style="text;html=1;strokeColor=none;fillColor=none;align=center;verticalAlign=middle;whiteSpace=wrap;rounded=0;fontColor=#6C8EBF;" vertex="1" parent="1">
          <mxGeometry x="370" y="870" width="80" height="30" as="geometry" />
        </mxCell>
        <mxCell id="HfvFaznO5EF5d6R5bnov-33" value="Extends" style="text;html=1;strokeColor=none;fillColor=none;align=center;verticalAlign=middle;whiteSpace=wrap;rounded=0;fontColor=#6C8EBF;" vertex="1" parent="1">
          <mxGeometry x="150" y="870" width="80" height="30" as="geometry" />
        </mxCell>
        <mxCell id="HfvFaznO5EF5d6R5bnov-34" value="" style="endArrow=blockThin;html=1;rounded=0;exitX=0.25;exitY=0;exitDx=0;exitDy=0;entryX=0.5;entryY=1;entryDx=0;entryDy=0;endFill=1;fillColor=#dae8fc;strokeColor=#6c8ebf;" edge="1" parent="1" source="HfvFaznO5EF5d6R5bnov-29" target="HfvFaznO5EF5d6R5bnov-26">
          <mxGeometry width="50" height="50" relative="1" as="geometry">
            <mxPoint x="170" y="850" as="sourcePoint" />
            <mxPoint x="220" y="800" as="targetPoint" />
            <Array as="points">
              <mxPoint x="270" y="860" />
              <mxPoint x="140" y="860" />
            </Array>
          </mxGeometry>
        </mxCell>
        <mxCell id="HfvFaznO5EF5d6R5bnov-35" value="" style="endArrow=blockThin;html=1;rounded=0;exitX=0.5;exitY=0;exitDx=0;exitDy=0;entryX=0.5;entryY=1;entryDx=0;entryDy=0;endFill=1;fillColor=#dae8fc;strokeColor=#6c8ebf;" edge="1" parent="1" source="HfvFaznO5EF5d6R5bnov-28" target="HfvFaznO5EF5d6R5bnov-24">
          <mxGeometry width="50" height="50" relative="1" as="geometry">
            <mxPoint x="480" y="880" as="sourcePoint" />
            <mxPoint x="530" y="830" as="targetPoint" />
          </mxGeometry>
        </mxCell>
        <mxCell id="HfvFaznO5EF5d6R5bnov-36" value="Extends" style="text;html=1;strokeColor=none;fillColor=none;align=center;verticalAlign=middle;whiteSpace=wrap;rounded=0;fontColor=#6C8EBF;" vertex="1" parent="1">
          <mxGeometry x="470" y="770" width="60" height="20" as="geometry" />
        </mxCell>
        <mxCell id="HfvFaznO5EF5d6R5bnov-37" value="" style="endArrow=blockThin;html=1;rounded=0;exitX=0.5;exitY=0;exitDx=0;exitDy=0;entryX=0.5;entryY=1;entryDx=0;entryDy=0;endFill=1;dashed=1;fillColor=#dae8fc;strokeColor=#6c8ebf;" edge="1" parent="1" source="HfvFaznO5EF5d6R5bnov-26" target="HfvFaznO5EF5d6R5bnov-25">
          <mxGeometry width="50" height="50" relative="1" as="geometry">
            <mxPoint x="150" y="890" as="sourcePoint" />
            <mxPoint x="200" y="840" as="targetPoint" />
          </mxGeometry>
        </mxCell>
        <mxCell id="HfvFaznO5EF5d6R5bnov-38" value="Implements" style="text;html=1;strokeColor=none;fillColor=none;align=center;verticalAlign=middle;whiteSpace=wrap;rounded=0;fontColor=#6C8EBF;" vertex="1" parent="1">
          <mxGeometry x="60" y="770" width="70" height="20" as="geometry" />
        </mxCell>
        <mxCell id="HfvFaznO5EF5d6R5bnov-39" value="Extends" style="text;html=1;strokeColor=none;fillColor=none;align=center;verticalAlign=middle;whiteSpace=wrap;rounded=0;fontColor=#6C8EBF;" vertex="1" parent="1">
          <mxGeometry x="310" y="610" width="60" height="20" as="geometry" />
        </mxCell>
        <mxCell id="HfvFaznO5EF5d6R5bnov-40" value="" style="endArrow=blockThin;html=1;rounded=0;exitX=0.5;exitY=0;exitDx=0;exitDy=0;entryX=0.5;entryY=1;entryDx=0;entryDy=0;endFill=1;fillColor=#dae8fc;strokeColor=#6c8ebf;" edge="1" parent="1" source="HfvFaznO5EF5d6R5bnov-25" target="HfvFaznO5EF5d6R5bnov-22">
          <mxGeometry width="50" height="50" relative="1" as="geometry">
            <mxPoint x="230" y="760" as="sourcePoint" />
            <mxPoint x="280" y="710" as="targetPoint" />
            <Array as="points">
              <mxPoint x="140" y="700" />
              <mxPoint x="300" y="700" />
            </Array>
          </mxGeometry>
        </mxCell>
        <mxCell id="HfvFaznO5EF5d6R5bnov-41" value="" style="endArrow=blockThin;html=1;rounded=0;exitX=0.5;exitY=0;exitDx=0;exitDy=0;entryX=0.5;entryY=1;entryDx=0;entryDy=0;endFill=1;fillColor=#dae8fc;strokeColor=#6c8ebf;" edge="1" parent="1" source="HfvFaznO5EF5d6R5bnov-24" target="HfvFaznO5EF5d6R5bnov-22">
          <mxGeometry width="50" height="50" relative="1" as="geometry">
            <mxPoint x="370" y="750" as="sourcePoint" />
            <mxPoint x="420" y="700" as="targetPoint" />
            <Array as="points">
              <mxPoint x="460" y="700" />
              <mxPoint x="300" y="700" />
            </Array>
          </mxGeometry>
        </mxCell>
        <mxCell id="HfvFaznO5EF5d6R5bnov-42" value="Extends" style="text;html=1;strokeColor=none;fillColor=none;align=center;verticalAlign=middle;whiteSpace=wrap;rounded=0;fontColor=#6C8EBF;" vertex="1" parent="1">
          <mxGeometry x="470" y="690" width="60" height="20" as="geometry" />
        </mxCell>
        <mxCell id="HfvFaznO5EF5d6R5bnov-43" value="Extends" style="text;html=1;strokeColor=none;fillColor=none;align=center;verticalAlign=middle;whiteSpace=wrap;rounded=0;fontColor=#6C8EBF;" vertex="1" parent="1">
          <mxGeometry x="70" y="690" width="60" height="20" as="geometry" />
        </mxCell>
        <mxCell id="HfvFaznO5EF5d6R5bnov-44" value="4000" style="rounded=0;whiteSpace=wrap;html=1;fillColor=#dae8fc;strokeColor=#6c8ebf;" vertex="1" parent="1">
          <mxGeometry x="600" y="1240" width="80" height="40" as="geometry" />
        </mxCell>
        <mxCell id="HfvFaznO5EF5d6R5bnov-45" value="null" style="rounded=0;whiteSpace=wrap;html=1;fillColor=#dae8fc;strokeColor=#6c8ebf;" vertex="1" parent="1">
          <mxGeometry x="720" y="1240" width="80" height="40" as="geometry" />
        </mxCell>
        <mxCell id="HfvFaznO5EF5d6R5bnov-46" value="15" style="rounded=0;whiteSpace=wrap;html=1;fillColor=#1ba1e2;fontColor=#ffffff;strokeColor=#006EAF;" vertex="1" parent="1">
          <mxGeometry x="800" y="1240" width="40" height="40" as="geometry" />
        </mxCell>
        <mxCell id="HfvFaznO5EF5d6R5bnov-47" value="4004" style="rounded=0;whiteSpace=wrap;html=1;fillColor=#dae8fc;strokeColor=#6c8ebf;" vertex="1" parent="1">
          <mxGeometry x="840" y="1240" width="80" height="40" as="geometry" />
        </mxCell>
        <mxCell id="HfvFaznO5EF5d6R5bnov-48" value="4000" style="rounded=0;whiteSpace=wrap;html=1;fillColor=#dae8fc;strokeColor=#6c8ebf;" vertex="1" parent="1">
          <mxGeometry x="960" y="1240" width="80" height="40" as="geometry" />
        </mxCell>
        <mxCell id="HfvFaznO5EF5d6R5bnov-49" value="56" style="rounded=0;whiteSpace=wrap;html=1;fillColor=#1ba1e2;fontColor=#ffffff;strokeColor=#006EAF;" vertex="1" parent="1">
          <mxGeometry x="1040" y="1240" width="40" height="40" as="geometry" />
        </mxCell>
        <mxCell id="HfvFaznO5EF5d6R5bnov-50" value="4008" style="rounded=0;whiteSpace=wrap;html=1;fillColor=#dae8fc;strokeColor=#6c8ebf;" vertex="1" parent="1">
          <mxGeometry x="1080" y="1240" width="80" height="40" as="geometry" />
        </mxCell>
        <mxCell id="HfvFaznO5EF5d6R5bnov-54" value="4004" style="rounded=0;whiteSpace=wrap;html=1;fillColor=#dae8fc;strokeColor=#6c8ebf;" vertex="1" parent="1">
          <mxGeometry x="1200" y="1240" width="80" height="40" as="geometry" />
        </mxCell>
        <mxCell id="HfvFaznO5EF5d6R5bnov-55" value="76" style="rounded=0;whiteSpace=wrap;html=1;fillColor=#1ba1e2;fontColor=#ffffff;strokeColor=#006EAF;" vertex="1" parent="1">
          <mxGeometry x="1280" y="1240" width="40" height="40" as="geometry" />
        </mxCell>
        <mxCell id="HfvFaznO5EF5d6R5bnov-56" value="null" style="rounded=0;whiteSpace=wrap;html=1;fillColor=#dae8fc;strokeColor=#6c8ebf;" vertex="1" parent="1">
          <mxGeometry x="1320" y="1240" width="80" height="40" as="geometry" />
        </mxCell>
        <mxCell id="HfvFaznO5EF5d6R5bnov-57" value="4000" style="rounded=1;whiteSpace=wrap;html=1;fillColor=#eeeeee;strokeColor=#36393d;" vertex="1" parent="1">
          <mxGeometry x="780" y="1300" width="80" height="40" as="geometry" />
        </mxCell>
        <mxCell id="HfvFaznO5EF5d6R5bnov-58" value="4004" style="rounded=1;whiteSpace=wrap;html=1;fillColor=#eeeeee;strokeColor=#36393d;" vertex="1" parent="1">
          <mxGeometry x="1020" y="1300" width="80" height="40" as="geometry" />
        </mxCell>
        <mxCell id="HfvFaznO5EF5d6R5bnov-59" value="4008" style="rounded=1;whiteSpace=wrap;html=1;fillColor=#eeeeee;strokeColor=#36393d;" vertex="1" parent="1">
          <mxGeometry x="1260" y="1300" width="80" height="40" as="geometry" />
        </mxCell>
        <mxCell id="HfvFaznO5EF5d6R5bnov-60" value="" style="endArrow=openThin;html=1;rounded=0;exitX=0;exitY=0.25;exitDx=0;exitDy=0;entryX=1;entryY=0.25;entryDx=0;entryDy=0;endFill=0;strokeColor=#808080;" edge="1" parent="1" source="HfvFaznO5EF5d6R5bnov-45" target="HfvFaznO5EF5d6R5bnov-44">
          <mxGeometry width="50" height="50" relative="1" as="geometry">
            <mxPoint x="670" y="1230" as="sourcePoint" />
            <mxPoint x="720" y="1180" as="targetPoint" />
          </mxGeometry>
        </mxCell>
        <mxCell id="HfvFaznO5EF5d6R5bnov-61" value="" style="endArrow=openThin;html=1;rounded=0;exitX=1;exitY=0.75;exitDx=0;exitDy=0;entryX=0;entryY=0.75;entryDx=0;entryDy=0;endFill=0;strokeColor=#808080;" edge="1" parent="1" source="HfvFaznO5EF5d6R5bnov-44" target="HfvFaznO5EF5d6R5bnov-45">
          <mxGeometry width="50" height="50" relative="1" as="geometry">
            <mxPoint x="670" y="1230" as="sourcePoint" />
            <mxPoint x="720" y="1180" as="targetPoint" />
          </mxGeometry>
        </mxCell>
        <mxCell id="HfvFaznO5EF5d6R5bnov-62" value="" style="endArrow=openThin;html=1;rounded=0;exitX=1;exitY=0.75;exitDx=0;exitDy=0;entryX=0;entryY=0.75;entryDx=0;entryDy=0;endFill=0;strokeColor=#808080;" edge="1" parent="1" source="HfvFaznO5EF5d6R5bnov-47" target="HfvFaznO5EF5d6R5bnov-48">
          <mxGeometry width="50" height="50" relative="1" as="geometry">
            <mxPoint x="930" y="1270" as="sourcePoint" />
            <mxPoint x="980" y="1220" as="targetPoint" />
          </mxGeometry>
        </mxCell>
        <mxCell id="HfvFaznO5EF5d6R5bnov-63" value="" style="endArrow=openThin;html=1;rounded=0;exitX=1;exitY=0.75;exitDx=0;exitDy=0;entryX=0;entryY=0.75;entryDx=0;entryDy=0;endFill=0;strokeColor=#808080;" edge="1" parent="1" source="HfvFaznO5EF5d6R5bnov-50" target="HfvFaznO5EF5d6R5bnov-54">
          <mxGeometry width="50" height="50" relative="1" as="geometry">
            <mxPoint x="1220" y="1330" as="sourcePoint" />
            <mxPoint x="1270" y="1280" as="targetPoint" />
          </mxGeometry>
        </mxCell>
        <mxCell id="HfvFaznO5EF5d6R5bnov-64" value="" style="endArrow=openThin;html=1;rounded=0;exitX=0;exitY=0.25;exitDx=0;exitDy=0;entryX=1;entryY=0.25;entryDx=0;entryDy=0;endFill=0;strokeColor=#808080;" edge="1" parent="1" source="HfvFaznO5EF5d6R5bnov-54" target="HfvFaznO5EF5d6R5bnov-50">
          <mxGeometry width="50" height="50" relative="1" as="geometry">
            <mxPoint x="1140" y="1280" as="sourcePoint" />
            <mxPoint x="1190" y="1230" as="targetPoint" />
          </mxGeometry>
        </mxCell>
        <mxCell id="HfvFaznO5EF5d6R5bnov-65" value="" style="endArrow=openThin;html=1;rounded=0;exitX=0;exitY=0.25;exitDx=0;exitDy=0;entryX=1;entryY=0.25;entryDx=0;entryDy=0;endFill=0;strokeColor=#808080;" edge="1" parent="1" source="HfvFaznO5EF5d6R5bnov-48" target="HfvFaznO5EF5d6R5bnov-47">
          <mxGeometry width="50" height="50" relative="1" as="geometry">
            <mxPoint x="920" y="1270" as="sourcePoint" />
            <mxPoint x="970" y="1220" as="targetPoint" />
          </mxGeometry>
        </mxCell>
        <mxCell id="HfvFaznO5EF5d6R5bnov-66" value="&lt;font style=&quot;font-size: 13px;&quot;&gt;Head&lt;/font&gt;" style="ellipse;whiteSpace=wrap;html=1;fillColor=#eeeeee;strokeColor=#36393d;" vertex="1" parent="1">
          <mxGeometry x="600" y="1160" width="80" height="40" as="geometry" />
        </mxCell>
        <mxCell id="HfvFaznO5EF5d6R5bnov-67" value="" style="endArrow=openThin;html=1;rounded=0;exitX=0.5;exitY=1;exitDx=0;exitDy=0;endFill=0;" edge="1" parent="1" source="HfvFaznO5EF5d6R5bnov-66" target="HfvFaznO5EF5d6R5bnov-44">
          <mxGeometry width="50" height="50" relative="1" as="geometry">
            <mxPoint x="590" y="1240" as="sourcePoint" />
            <mxPoint x="640" y="1190" as="targetPoint" />
          </mxGeometry>
        </mxCell>
        <mxCell id="HfvFaznO5EF5d6R5bnov-68" value="&lt;font style=&quot;font-size: 13px;&quot;&gt;Addess of previous node&lt;/font&gt;" style="ellipse;whiteSpace=wrap;html=1;fillColor=#eeeeee;strokeColor=#36393d;" vertex="1" parent="1">
          <mxGeometry x="920" y="1120" width="80" height="80" as="geometry" />
        </mxCell>
        <mxCell id="HfvFaznO5EF5d6R5bnov-69" value="&lt;font style=&quot;font-size: 13px;&quot;&gt;Address of next node&lt;/font&gt;" style="ellipse;whiteSpace=wrap;html=1;fillColor=#eeeeee;strokeColor=#36393d;" vertex="1" parent="1">
          <mxGeometry x="1120" y="1120" width="80" height="80" as="geometry" />
        </mxCell>
        <mxCell id="HfvFaznO5EF5d6R5bnov-70" value="&lt;font style=&quot;font-size: 13px;&quot;&gt;Value&lt;/font&gt;" style="ellipse;whiteSpace=wrap;html=1;fillColor=#eeeeee;strokeColor=#36393d;" vertex="1" parent="1">
          <mxGeometry x="1030" y="1140" width="60" height="60" as="geometry" />
        </mxCell>
        <mxCell id="HfvFaznO5EF5d6R5bnov-71" value="" style="endArrow=openThin;html=1;rounded=0;exitX=0.5;exitY=1;exitDx=0;exitDy=0;entryX=0.5;entryY=0;entryDx=0;entryDy=0;endFill=0;strokeColor=#808080;" edge="1" parent="1" source="HfvFaznO5EF5d6R5bnov-68" target="HfvFaznO5EF5d6R5bnov-48">
          <mxGeometry width="50" height="50" relative="1" as="geometry">
            <mxPoint x="1050" y="1310" as="sourcePoint" />
            <mxPoint x="1100" y="1260" as="targetPoint" />
          </mxGeometry>
        </mxCell>
        <mxCell id="HfvFaznO5EF5d6R5bnov-72" value="" style="endArrow=openThin;html=1;rounded=0;exitX=0.5;exitY=1;exitDx=0;exitDy=0;entryX=0.5;entryY=0;entryDx=0;entryDy=0;endFill=0;strokeColor=#808080;" edge="1" parent="1" source="HfvFaznO5EF5d6R5bnov-69" target="HfvFaznO5EF5d6R5bnov-50">
          <mxGeometry width="50" height="50" relative="1" as="geometry">
            <mxPoint x="1050" y="1310" as="sourcePoint" />
            <mxPoint x="1100" y="1260" as="targetPoint" />
          </mxGeometry>
        </mxCell>
        <mxCell id="HfvFaznO5EF5d6R5bnov-73" value="" style="endArrow=openThin;html=1;rounded=0;exitX=0.5;exitY=1;exitDx=0;exitDy=0;entryX=0.5;entryY=0;entryDx=0;entryDy=0;endFill=0;strokeColor=#808080;" edge="1" parent="1" source="HfvFaznO5EF5d6R5bnov-70" target="HfvFaznO5EF5d6R5bnov-49">
          <mxGeometry width="50" height="50" relative="1" as="geometry">
            <mxPoint x="1050" y="1310" as="sourcePoint" />
            <mxPoint x="1100" y="1260" as="targetPoint" />
          </mxGeometry>
        </mxCell>
      </root>
    </mxGraphModel>
  </diagram>
</mxfile>
